<svg xmlns="http://www.w3.org/2000/svg" xmlns:xlink="http://www.w3.org/1999/xlink" width="20" height="18" viewBox="0 0 20 18"><defs><clipPath id="a"><rect width="20" height="18" transform="translate(838 84)" fill="#f70606" stroke="#707070" stroke-width="1"/></clipPath></defs><g transform="translate(-838 -84)" clip-path="url(#a)"><g transform="translate(838 84.627)"><path d="M9.481,20.494H19.29V16.187a4.906,4.906,0,0,0-9.808,0Zm2.834-7.782a4.2,4.2,0,0,1,.74-.328.321.321,0,0,1,.4.193.307.307,0,0,1-.2.392,3.539,3.539,0,0,0-.624.277h0a.322.322,0,0,1-.434-.112A.3.3,0,0,1,12.316,12.712Zm-2.063,3.475a3.921,3.921,0,0,1,.682-2.209.325.325,0,0,1,.441-.087.3.3,0,0,1,.09.428,3.309,3.309,0,0,0-.577,1.868v3.248a.318.318,0,0,1-.636,0V16.187Z" transform="translate(-4.596 -6.829)" fill="#f70606"/><path d="M18.995,31.517H7.611a.358.358,0,0,0-.363.353v1.765h12.11V31.871A.358.358,0,0,0,18.995,31.517Z" transform="translate(-3.514 -16.862)" fill="#f70606"/><path d="M18.9,4.391l.124-2.139h-.891l.124,2.139Z" transform="translate(-8.792 -2.252)" fill="#f70606"/><path d="M10.516,6.278,9.523,4.366,8.751,4.8,9.958,6.591Z" transform="translate(-4.242 -3.307)" fill="#f70606"/><path d="M2.113,11.754l1.968.965.322-.541L2.559,11.005Z" transform="translate(-1.024 -6.622)" fill="#f70606"/><path d="M0,21.255l2.2-.12v-.625L0,20.389Z" transform="translate(0 -11.306)" fill="#f70606"/><path d="M33.73,20.509v.625l2.2.12v-.865Z" transform="translate(-16.351 -11.306)" fill="#f70606"/><path d="M33.287,11.005l-1.844,1.173.322.541,1.968-.965Z" transform="translate(-15.243 -6.622)" fill="#f70606"/><path d="M27.588,4.8l-.771-.433-.994,1.912.557.312Z" transform="translate(-12.519 -3.307)" fill="#f70606"/></g></g></svg>