<svg xmlns="http://www.w3.org/2000/svg" xmlns:xlink="http://www.w3.org/1999/xlink" width="21" height="20" viewBox="0 0 21 20"><defs><clipPath id="a"><rect width="21" height="20" transform="translate(0 0.209)" fill="#f7ad06" stroke="#1a1a2e" stroke-width="1"/></clipPath></defs><g transform="translate(0 -0.209)" clip-path="url(#a)"><g transform="translate(0 4.441)"><path d="M6.875,8.294H4.352a.7.7,0,0,0-.619.755v9.74a.7.7,0,0,0,.619.755H6.875a.7.7,0,0,0,.619-.755V9.049A.7.7,0,0,0,6.875,8.294Z" transform="translate(-1.166 -8.294)" fill="#f7ad06"/><path d="M1.3,11.117H.516A.581.581,0,0,0,0,11.746V17a.581.581,0,0,0,.516.629H1.3A.581.581,0,0,0,1.82,17V11.746A.581.581,0,0,0,1.3,11.117Z" transform="translate(0 -8.749)" fill="#f7ad06"/><rect width="6.31" height="2.664" transform="translate(7.159 4.293)" fill="#f7ad06"/><path d="M23.939,8.294H21.416a.7.7,0,0,0-.619.755v9.74a.7.7,0,0,0,.619.755h2.523a.7.7,0,0,0,.619-.755V9.049A.7.7,0,0,0,23.939,8.294Z" transform="translate(-6.497 -8.294)" fill="#f7ad06"/><path d="M28.657,11.117h-.788a.581.581,0,0,0-.516.629V17a.581.581,0,0,0,.516.629h.788A.581.581,0,0,0,29.173,17V11.746A.581.581,0,0,0,28.657,11.117Z" transform="translate(-8.546 -8.749)" fill="#f7ad06"/></g></g></svg>