<svg xmlns="http://www.w3.org/2000/svg" xmlns:xlink="http://www.w3.org/1999/xlink" width="41" height="46" viewBox="0 0 41 46"><defs><clipPath id="a"><rect width="41" height="46" transform="translate(319 481)" fill="#f5f1da" stroke="#f5f1da" stroke-width="1"/></clipPath></defs><g transform="translate(-319 -481)" clip-path="url(#a)"><g transform="translate(320 493.606)"><path d="M56.264,24.211A7.99,7.99,0,0,0,54.9,22.144c-.259-.291-.526-.559-.8-.825a.966.966,0,0,0-.233-.886l.005,0a.875.875,0,0,1-.056-.237,4.729,4.729,0,0,1-.031-.588c0-.608.065-1.455.065-2.429a12.749,12.749,0,0,0-.624-4.192,10.674,10.674,0,0,0-3.042-4.514,13.869,13.869,0,0,0-6.207-3.13c-.069-.016-.136-.028-.2-.044a3.279,3.279,0,0,0,.608-1.9A3.471,3.471,0,0,0,40.839,0a3.577,3.577,0,0,0-2.774,1.309A3.575,3.575,0,0,0,35.29,0a3.471,3.471,0,0,0-3.542,3.394,3.28,3.28,0,0,0,.609,1.9c-.067.016-.134.028-.2.044a13.856,13.856,0,0,0-6.207,3.13A10.687,10.687,0,0,0,22.9,12.984a12.778,12.778,0,0,0-.623,4.192c0,.974.065,1.819.065,2.427a3.592,3.592,0,0,1-.052.706.488.488,0,0,1-.034.12v0l0,0a.967.967,0,0,0-.232.886c-.089.085-.177.173-.265.261a8.8,8.8,0,0,0-1.9,2.632,10.287,10.287,0,0,0-.773,4.285,9.131,9.131,0,0,0,1.43,5.017,12.9,12.9,0,0,0,6.739,4.874A32.405,32.405,0,0,0,38.065,40c5.518,0,10.2-.953,13.568-2.869a11.2,11.2,0,0,0,3.974-3.618,9.131,9.131,0,0,0,1.43-5.017A10.289,10.289,0,0,0,56.264,24.211ZM40.839,2.036a1.392,1.392,0,0,1,1.416,1.357,1.418,1.418,0,0,1-2.833,0A1.393,1.393,0,0,1,40.839,2.036Zm-5.55,0a1.392,1.392,0,0,1,1.416,1.357,1.418,1.418,0,0,1-2.833,0A1.393,1.393,0,0,1,35.29,2.036Zm16.394,16.7a11.724,11.724,0,0,1-1.5-2.7,9.779,9.779,0,0,0-4.476-5.32,16.146,16.146,0,0,0-7.645-1.467A16.149,16.149,0,0,0,30.42,10.72a9.779,9.779,0,0,0-4.476,5.32,11.924,11.924,0,0,1-1.5,2.7c-.02-.5-.042-1.011-.041-1.567a10.853,10.853,0,0,1,.518-3.557A8.623,8.623,0,0,1,27.4,9.954a11.685,11.685,0,0,1,5.259-2.637,23.631,23.631,0,0,1,5.4-.527,23.625,23.625,0,0,1,5.4.527,11.692,11.692,0,0,1,5.259,2.637,8.636,8.636,0,0,1,2.48,3.665,10.847,10.847,0,0,1,.518,3.557C51.726,17.73,51.7,18.245,51.684,18.738Z" transform="translate(-18.093 -10)" fill="#f5f1da"/></g></g></svg>