<svg xmlns="http://www.w3.org/2000/svg" width="40" height="40" viewBox="0 0 40 40"><path d="M39.9,60.757a8.014,8.014,0,0,0-1.145-3.091,5.829,5.829,0,0,0-.377-.532,5.023,5.023,0,0,0-3.923-2.072H5.549a5.029,5.029,0,0,0-3.923,2.072,5.954,5.954,0,0,0-.377.532A7.924,7.924,0,0,0,.108,60.757,8.652,8.652,0,0,0,0,62.131V87.993A8.7,8.7,0,0,0,.46,90.8a7.257,7.257,0,0,0,1.166,2.19c.124.158.248.3.382.447a4.886,4.886,0,0,0,3.541,1.624h28.9a4.859,4.859,0,0,0,3.541-1.631,5.452,5.452,0,0,0,.382-.441,7.4,7.4,0,0,0,1.171-2.19v-.006a8.666,8.666,0,0,0,.454-2.8V62.131A9.2,9.2,0,0,0,39.9,60.757ZM3.634,59.691a2.433,2.433,0,0,1,1.915-1.013h28.9a2.424,2.424,0,0,1,1.915,1.013,3.345,3.345,0,0,1,.243.362L21.461,76.874a1.879,1.879,0,0,1-2.921,0L3.4,60.046A2.552,2.552,0,0,1,3.634,59.691Zm-.795,28.3v-24.2L13.8,75.973,2.844,88.144A1.313,1.313,0,0,1,2.839,87.993Zm31.613,3.452H5.549a2.248,2.248,0,0,1-1.342-.453L15.768,78.156l1.079,1.2a4.059,4.059,0,0,0,6.312,0l1.079-1.2L35.794,90.992A2.25,2.25,0,0,1,34.452,91.445Zm2.71-3.452a1.37,1.37,0,0,1-.005.151L26.2,75.98,37.161,63.795Z" transform="translate(0 -55.062)" fill="#f5f1da"/></svg>