<svg xmlns="http://www.w3.org/2000/svg" width="40" height="40" viewBox="0 0 40 40"><path d="M62.986,26.906c-.152-.468-.457-1.317-1.009-2.84C60.189,19.081,50.387,1.6,50.387,1.6A3.1,3.1,0,0,0,47.266.019L35.143,1.37A2.547,2.547,0,0,0,33.22,2.563a32.136,32.136,0,0,0-2,3.394,2.527,2.527,0,0,0,.952,3.359c1.2.76,6.908,2.06,7.993,1.627,1.809-.728,2.741-4.016,2.741-4.016l2.739-.433a21.749,21.749,0,0,1,.952,6.734,30.33,30.33,0,0,0,.622,8.877c-.75.235-1.536-.626-3.171-2.02a9.754,9.754,0,0,0-14.255,1.16c-.742-.572-3.508-.871-6.68-1.16V40a11.3,11.3,0,0,0,7.8-3.931c2.952.536,7.5.175,11.266-.4a40.075,40.075,0,0,0,11.571-3.513L61.406,29.8A2.252,2.252,0,0,0,62.986,26.906Z" transform="translate(-23.115 0)" fill="#f5f1da"/></svg>