<svg xmlns="http://www.w3.org/2000/svg" width="40" height="40" viewBox="0 0 40 40"><g transform="translate(0 -58)"><path d="M40,70.719c0-2.891-1.361-5.234-3.038-5.234s-3.04,2.343-3.04,5.234a7.546,7.546,0,0,0,.855,3.635C32.71,81.73,28.76,84.3,25.7,81.974c-2.727-2.079-3.733-8.019-4.074-12.622a7.366,7.366,0,0,0,1.87-5.331C23.495,60.695,21.931,58,20,58s-3.495,2.695-3.495,6.021a7.366,7.366,0,0,0,1.87,5.331c-.341,4.6-1.346,10.544-4.074,12.622C11.24,84.3,7.29,81.73,5.223,74.354a7.546,7.546,0,0,0,.855-3.635c0-2.891-1.361-5.234-3.038-5.234S0,67.829,0,70.719c0,2.663,1.155,4.857,2.646,5.19L6.149,98h27.7l3.5-22.091C38.846,75.577,40,73.382,40,70.719Z" fill="#f5f1da"/></g></svg>