<svg xmlns="http://www.w3.org/2000/svg" width="40" height="40" viewBox="0 0 40 40"><g transform="translate(360 526)"><path d="M20,0A20,20,0,1,0,40,20,20,20,0,0,0,20,0ZM16.225,29.593a2.491,2.491,0,1,1,2.492,2.491A2.492,2.492,0,0,1,16.225,29.593ZM26.846,17.1A6.711,6.711,0,0,1,25.7,19.079a9.767,9.767,0,0,1-2.925,2.269c-.6.326-1.135.577-1.466.763a1.567,1.567,0,0,0-.411.3.494.494,0,0,0-.117.221,1.52,1.52,0,0,0-.044.4v.977a.916.916,0,0,1-.916.916H17.612a.917.917,0,0,1-.917-.916v-.977a5.543,5.543,0,0,1,.188-1.467,4.538,4.538,0,0,1,.587-1.3,5.2,5.2,0,0,1,1.874-1.678c.578-.318,1.15-.582,1.681-.881a6.213,6.213,0,0,0,1.352-.967,2.913,2.913,0,0,0,.554-.744,3.043,3.043,0,0,0,.312-1.437,1.608,1.608,0,0,0-.206-.735,3.074,3.074,0,0,0-.724-.882,4.222,4.222,0,0,0-2.739-.978,5.446,5.446,0,0,0-2.78.673,2.305,2.305,0,0,0-.862.75.917.917,0,0,1-1.174.025l-1.7-1.359a.916.916,0,0,1-.026-1.408A5.344,5.344,0,0,1,14.79,9.122a9.5,9.5,0,0,1,4.784-1.205,8.342,8.342,0,0,1,4.24,1.145,7.363,7.363,0,0,1,2.8,2.881,5.627,5.627,0,0,1,.667,2.608A7.319,7.319,0,0,1,26.846,17.1Z" transform="translate(-360 -526)" fill="#f5f1da"/></g></svg>