<svg xmlns="http://www.w3.org/2000/svg" width="40" height="40" viewBox="0 0 40 40"><g transform="translate(-42.802)"><path d="M76.943,4.878a22.936,22.936,0,0,0-28.283,0A15.361,15.361,0,0,0,42.8,16.655V40h40V16.655A15.361,15.361,0,0,0,76.943,4.878Zm2.708,32.5h-33.7V16.655a12.928,12.928,0,0,1,4.936-9.922,19.323,19.323,0,0,1,23.829,0,12.923,12.923,0,0,1,4.936,9.922V37.377Z" transform="translate(0 0)" fill="#f5f1da"/><path d="M123.341,251.807a5,5,0,1,0,3.534,1.465A4.988,4.988,0,0,0,123.341,251.807Zm1.857,6.857a2.625,2.625,0,1,1,.77-1.857A2.613,2.613,0,0,1,125.2,258.664Z" transform="translate(-69.537 -235.111)" fill="#f5f1da"/></g></svg>