<svg xmlns="http://www.w3.org/2000/svg" width="40.749" height="40.49" viewBox="0 0 40.749 40.49"><g transform="translate(-486.315 -104.444)"><path d="M37.312,149.617q-.846-5.169-1.689-10.341-.276-1.682-.55-3.366l-1.527,2.69q.742,5.146,1.484,10.295c.244,1.69-.4,3.194-1.448,2.616a11.368,11.368,0,0,0-5.49-2.318,9.269,9.269,0,0,0-6.252,2.01c-.221.161-1.7,2.032-1.756.7q-.048-4.654-.1-9.309-.1-9.615-.2-19.227c0-.367.5-.552.6-.621a9.051,9.051,0,0,1,2.555-1.176,8.948,8.948,0,0,1,6.268.628,3.917,3.917,0,0,1,1.836,1.4l.982-1.727a5.742,5.742,0,0,0-1.057-1.084,10.28,10.28,0,0,0-5.889-2.01,10.8,10.8,0,0,0-6.038,1.64c-.375.226-.988-.374-1.372-.556a11.752,11.752,0,0,0-1.368-.548,10.865,10.865,0,0,0-3.075-.539,12.077,12.077,0,0,0-5.867,1.608c-.415.274-.118.08-.026.02A6.2,6.2,0,0,0,4.5,124.738q-.139.851-.279,1.7l-1.407,8.609q-.962,5.886-1.923,11.768c-.373,2.284-1.112,5.217-.835,7.618.338,2.972,1.989,4.341,3.584,3.77a9.5,9.5,0,0,0,1.611-1A14.552,14.552,0,0,1,8,155.824a8.707,8.707,0,0,1,6.725.617c.492.224,2.337.784,2.39,1.753.051.9.64.658,1.012.658H19.23c.338,0,.9.206,1.225-.041s.074-.867.378-1.1a9.908,9.908,0,0,1,1.271-.81,13.211,13.211,0,0,1,3.077-1.23,8.491,8.491,0,0,1,6.47,1.03c1.252.7,2.466,1.977,3.825,1.549,1.852-.578,2.609-3.911,2.123-6.884C37.511,150.779,37.407,150.2,37.312,149.617ZM17.884,130.991q-.111,10.335-.218,20.668c0,.461-.077.747-.368.734a10.446,10.446,0,0,0-5.283-3.02,8.86,8.86,0,0,0-6.276,1.156c-.635.345-1.346,1.106-2.02,1.106-.771,0-1.219-1.208-1.039-2.471q.707-4.892,1.411-9.786.829-5.753,1.658-11.507.207-1.431.413-2.866c.337-2.338,2.215-2.781,3.336-3.192a8.443,8.443,0,0,1,6.3.107c.36.15,2.171.641,2.162,1.551Q17.922,127.232,17.884,130.991Z" transform="translate(486.316 -14)" fill="#f5f1da"/><path d="M304.609,121.1l4.973-1.185,9.856-11.071-3.919-4.4-9.854,11.071Zm12.938-12.256-8.451,9.493-.873-.98,8.451-9.493Zm-2.029-2.28.873.98-8.451,9.493-.872-.98Zm-8.648,9.908,1.858,2.089-1.73.428-.509-.571Z" transform="translate(207.626)" fill="#f5f1da"/></g></svg>