<svg xmlns="http://www.w3.org/2000/svg" width="40.34" height="37.499" viewBox="0 0 40.34 37.499"><g transform="translate(2.743 -317.546)"><g transform="translate(-2.403 -71.133)"><path d="M61.667,263.114h9.568c.671,0,1.216-.8,1.216-1.779V234.414c0-.983-.544-1.779-1.216-1.779H61.667c-.671,0-1.216.8-1.216,1.779v26.921C60.451,262.318,61,263.114,61.667,263.114Z" transform="translate(-60.791 156.045)" fill="#f5f1da"/><path d="M206.682,158.615h9.806a1.135,1.135,0,0,0,1.246-.972V132.591a1.135,1.135,0,0,0-1.246-.972h-9.806a1.135,1.135,0,0,0-1.246.972v25.052A1.135,1.135,0,0,0,206.682,158.615Z" transform="translate(-192.002 261.065)" fill="#f5f1da"/><path d="M351.636,33.092H361.2c.672,0,1.216-.187,1.216-.417V16.882c0-.23-.544-.417-1.216-.417h-9.568c-.672,0-1.216.187-1.216.417V32.675C350.42,32.906,350.964,33.092,351.636,33.092Z" transform="translate(-323.01 386.393)" fill="#f5f1da"/><path d="M39.034,438.633H0v5.4H40.34v-5.4Z" transform="translate(-0.34 -17.853)" fill="#f5f1da"/></g></g></svg>